<svg width="17" height="16" viewBox="0 0 17 16" fill="none" xmlns="http://www.w3.org/2000/svg">
<path d="M5.0335 15.1667C5.78683 15.1667 6.58016 14.9867 7.40016 14.64C8.20016 14.3 9.00683 13.8333 9.7935 13.2667C10.5735 12.6933 11.3268 12.0533 12.0402 11.3533C12.7468 10.64 13.3868 9.88667 13.9535 9.11333C14.5268 8.31333 14.9868 7.51333 15.3135 6.74C15.6602 5.91333 15.8335 5.11333 15.8335 4.36C15.8335 3.84 15.7402 3.34667 15.5602 2.88667C15.3735 2.41333 15.0735 1.97333 14.6668 1.59333C14.1535 1.08667 13.5668 0.833334 12.9402 0.833334C12.6802 0.833334 12.4135 0.893334 12.1868 1C11.9268 1.12 11.7068 1.3 11.5468 1.54L10.0002 3.72C9.86016 3.91333 9.7535 4.1 9.68016 4.28667C9.5935 4.48667 9.54683 4.68667 9.54683 4.88C9.54683 5.13333 9.62016 5.38 9.76016 5.61333C9.86016 5.79333 10.0135 5.98667 10.2068 6.18L10.6602 6.65333C10.6535 6.67333 10.6468 6.68667 10.6402 6.7C10.5602 6.84 10.4002 7.08 10.0935 7.44C9.76683 7.81333 9.46016 8.15333 9.1535 8.46667C8.76016 8.85333 8.4335 9.16 8.12683 9.41333C7.74683 9.73333 7.50016 9.89333 7.3535 9.96667L7.36683 10L6.88016 9.52C6.6735 9.31333 6.4735 9.16 6.28016 9.06C5.9135 8.83333 5.44683 8.79333 4.98016 8.98667C4.80683 9.06 4.62016 9.16 4.42016 9.3L2.20683 10.8733C1.96016 11.04 1.78016 11.2533 1.6735 11.5067C1.5735 11.76 1.52683 11.9933 1.52683 12.2267C1.52683 12.5467 1.60016 12.8667 1.74016 13.1667C1.88016 13.4667 2.0535 13.7267 2.2735 13.9667C2.6535 14.3867 3.06683 14.6867 3.54683 14.88C4.00683 15.0667 4.50683 15.1667 5.0335 15.1667ZM12.9402 1.83333C13.3068 1.83333 13.6468 1.99333 13.9735 2.31333C14.2802 2.6 14.4935 2.91333 14.6268 3.25333C14.7668 3.6 14.8335 3.96667 14.8335 4.36C14.8335 4.98 14.6868 5.65333 14.3935 6.34667C14.0935 7.05333 13.6735 7.78667 13.1402 8.52C12.6068 9.25333 12.0002 9.96667 11.3335 10.64C10.6668 11.3 9.94683 11.9133 9.20683 12.4533C8.48683 12.98 7.74683 13.4067 7.0135 13.7133C5.8735 14.2 4.80683 14.3133 3.92683 13.9467C3.58683 13.8067 3.28683 13.5933 3.0135 13.2867C2.86016 13.12 2.74016 12.94 2.64016 12.7267C2.56016 12.56 2.52016 12.3867 2.52016 12.2133C2.52016 12.1067 2.54016 12 2.5935 11.88C2.6135 11.84 2.6535 11.7667 2.78016 11.68L4.9935 10.1067C5.12683 10.0133 5.24683 9.94667 5.36016 9.9C5.50683 9.84 5.56683 9.78 5.7935 9.92C5.92683 9.98667 6.04683 10.0867 6.18016 10.22L6.68683 10.72C6.94683 10.9733 7.34683 11.0333 7.6535 10.92L7.8335 10.84C8.10683 10.6933 8.42683 10.4667 8.78016 10.1667C9.10016 9.89333 9.44683 9.57333 9.86683 9.16C10.1935 8.82667 10.5202 8.47333 10.8602 8.08C11.1735 7.71333 11.4002 7.4 11.5402 7.14L11.6202 6.94C11.6602 6.78667 11.6735 6.7 11.6735 6.60667C11.6735 6.36667 11.5868 6.15333 11.4202 5.98667L10.9202 5.46667C10.7868 5.33333 10.6868 5.20667 10.6202 5.09333C10.5668 5.00667 10.5468 4.93333 10.5468 4.86667C10.5468 4.81333 10.5668 4.73333 10.6002 4.65333C10.6468 4.54667 10.7202 4.42667 10.8135 4.3L12.3602 2.11333C12.4268 2.02 12.5068 1.95333 12.6068 1.90667C12.7135 1.86 12.8268 1.83333 12.9402 1.83333ZM7.36683 10.0067L7.4735 10.46L7.2935 9.99333C7.32683 9.98667 7.3535 9.99333 7.36683 10.0067Z" fill="#959595"/>
<path d="M4.33341 6.5C4.60675 6.5 4.83341 6.27333 4.83341 6C4.83341 5.76 5.07341 5.26 5.47341 4.83333C5.86675 4.41333 6.30008 4.16667 6.66675 4.16667C6.94008 4.16667 7.16675 3.94 7.16675 3.66667C7.16675 3.39333 6.94008 3.16667 6.66675 3.16667C6.02008 3.16667 5.34008 3.51333 4.74675 4.14667C4.19342 4.74 3.83341 5.46667 3.83341 6C3.83341 6.27333 4.06008 6.5 4.33341 6.5Z" fill="#959595"/>
<path d="M2.00008 6.5C2.27342 6.5 2.50008 6.27333 2.50008 6C2.50008 3.7 4.36675 1.83333 6.66675 1.83333C6.94008 1.83333 7.16675 1.60667 7.16675 1.33333C7.16675 1.06 6.94008 0.833334 6.66675 0.833334C3.82008 0.833334 1.50008 3.15333 1.50008 6C1.50008 6.27333 1.72675 6.5 2.00008 6.5Z" fill="#959595"/>
</svg>
